<?xml version="1.0" encoding="utf-8"?>
<!-- Generator: Adobe Illustrator 27.2.0, SVG Export Plug-In . SVG Version: 6.00 Build 0)  -->
<svg version="1.1" id="Layer_1" xmlns="http://www.w3.org/2000/svg" xmlns:xlink="http://www.w3.org/1999/xlink" x="0px" y="0px"
	 viewBox="0 0 32 32" style="enable-background:new 0 0 32 32;" xml:space="preserve">
<g id="surface1">
	<circle style="display:none;fill:#FFFFFF;stroke:#000000;stroke-width:20;stroke-miterlimit:10;" cx="16" cy="16" r="16"/>
	<path d="M15.8,26.5c-2.2,0-4-1-4-5.1s1.8-6.8,4-6.8s4,2.7,4,6.8S18,26.5,15.8,26.5z"/>
	<path style="fill:#FFCC80;" d="M15.8,22.5c-1.6,0-2.8-0.3-2.8-2.6s1.8-3.7,2.8-3.7s2.8,1.4,2.8,3.7S17.4,22.5,15.8,22.5z"/>
	<path d="M21.5,27.3c0-0.5-0.7-2.4-2.8-2.4c-1.7,0-2.3,1.7-2.3,2.6c0,0.7,1.3,0.9,2.8,0.9C21,28.2,21.5,27.7,21.5,27.3z"/>
	<path d="M10.1,27.3c0-0.5,0.7-2.4,2.8-2.4c1.7,0,2.3,1.7,2.3,2.6c0,0.7-1.3,0.9-2.8,0.9C10.6,28.2,10.1,27.7,10.1,27.3z"/>
	<path d="M11.8,11.7c0,2.5-2,4.5-4.5,4.5s-4.5-2-4.5-4.5s2-4.5,4.5-4.5S11.8,9.2,11.8,11.7z"/>
	<path d="M28.9,11.7c0,2.5-2,4.5-4.5,4.5s-4.5-2-4.5-4.5s2-4.5,4.5-4.5S28.9,9.2,28.9,11.7z"/>
	<path style="fill:#FFCC80;" d="M27.7,11.7c0,1.9-1.5,3.4-3.4,3.4s-3.4-1.5-3.4-3.4s1.5-3.4,3.4-3.4S27.7,9.9,27.7,11.7z"/>
	<path style="fill:#FFCC80;" d="M10.7,11.7c0,1.9-1.5,3.4-3.4,3.4s-3.4-1.5-3.4-3.4s1.5-3.4,3.4-3.4S10.7,9.9,10.7,11.7z"/>
	<path d="M22.6,11.7c0,3.1-1.9,5.7-6.8,5.7S9,14.9,9,11.7s1.9-5.7,6.8-5.7S22.6,8.6,22.6,11.7z"/>
	<path style="fill:#FFCC80;" d="M10.1,11.7c0,2.5,1.1,4.5,5.7,4.5s5.7-2,5.7-4.5s-1.1-4.5-5.7-4.5S10.1,9.2,10.1,11.7z"/>
	<path style="fill:#FFFFFF;" d="M19.8,12c0,0.8-0.6,1.4-1.4,1.4c-0.8,0-1.4-0.6-1.4-1.4c0-0.8,0.6-1.4,1.4-1.4
		C19.2,10.6,19.8,11.2,19.8,12z"/>
	<path style="fill:#FFFFFF;" d="M14.7,12c0,0.8-0.6,1.4-1.4,1.4c-0.8,0-1.4-0.6-1.4-1.4c0-0.8,0.6-1.4,1.4-1.4
		C14,10.6,14.7,11.2,14.7,12z"/>
	<path style="fill:#FF0066;" d="M19.5,12.3c0,0.6-0.5,1.1-1.1,1.1s-1.1-0.5-1.1-1.1s0.5-1.1,1.1-1.1S19.5,11.7,19.5,12.3z"/>
	<path style="fill:#FFFFFF;" d="M19.2,11.5c0,0.2-0.1,0.3-0.3,0.3s-0.3-0.1-0.3-0.3c0-0.2,0.1-0.3,0.3-0.3S19.2,11.3,19.2,11.5z"/>
	<path style="fill:#FF0066;" d="M14.4,12.3c0,0.6-0.5,1.1-1.1,1.1c-0.6,0-1.1-0.5-1.1-1.1s0.5-1.1,1.1-1.1
		C13.9,11.2,14.4,11.7,14.4,12.3z"/>
	<path style="display:none;fill:#455A64;" d="M14.9,14l0.9-0.9l0.9,0.9H14.9z"/>
	<path style="display:none;fill:#FFFFFF;" d="M16.6,13.5l-0.9,0.9l-0.9-0.9H16.6z"/>
	<path style="fill:#FF0066;" d="M16.9,14.6c0,0-0.6,0.9-1.1,0.9s-1.1-0.9-1.1-0.9s0.6,0.3,1.1,0.3S16.9,14.6,16.9,14.6z"/>
	<path d="M18.8,9.5c-0.1,0-0.2,0-0.2-0.1c0,0-0.3-0.2-0.9-0.1c-0.2,0.1-0.5-0.1-0.5-0.3c0-0.2,0.1-0.5,0.3-0.5
		C18.4,8.4,19,8.7,19,8.8c0.2,0.1,0.2,0.4,0.1,0.6C19,9.4,18.9,9.5,18.8,9.5z"/>
	<path d="M12.8,9.5c-0.1,0-0.2-0.1-0.3-0.2c-0.1-0.2-0.1-0.4,0.1-0.6c0.1-0.1,0.6-0.4,1.5-0.2c0.2,0.1,0.3,0.3,0.3,0.5
		c-0.1,0.2-0.3,0.3-0.5,0.3C13.4,9.1,13,9.4,13,9.4C13,9.5,12.8,9.5,12.8,9.5z"/>
	<path style="fill:#FFFFFF;" d="M14.1,11.5c0,0.2-0.1,0.3-0.3,0.3c-0.2,0-0.3-0.1-0.3-0.3c0-0.2,0.1-0.3,0.3-0.3
		C14,11.2,14.1,11.3,14.1,11.5z"/>
	<path d="M22.6,21.4c0,0.6-0.5,1.1-1.1,1.1s-1.1-0.5-1.1-1.1c0-2.3-2.3-4-1.7-4C19.7,17.4,22.6,19.1,22.6,21.4z"/>
	<path d="M9,21.4c0,0.6,0.5,1.1,1.1,1.1c0.6,0,1.1-0.5,1.1-1.1c0-2.3,2.3-4,1.7-4C11.9,17.4,9,19.1,9,21.4z"/>
</g>
<g id="Layer_2_00000074405837788437008430000000887302868142999175_">
	<polygon style="fill:#FFFFFF;" points="14.7,15.7 15,15.8 15,15.4 14.7,15.5 	"/>
	<polygon style="fill:#FFFFFF;" points="14.6,15.7 14.2,15.8 14.3,15.4 14.6,15.5 	"/>
</g>
<path style="fill:#FFFFFF;" d="M14.8,15.5"/>
</svg>
