<svg
	xmlns="http://www.w3.org/2000/svg" xmlns:xlink="http://www.w3.org/1999/xlink" x="0px" y="0px"
	viewBox="0 0 32 32"
	style="enable-background:new 0 0 32 32;"
	xml:space="preserve"
>

<style type="text/css">
	.st0{display:none;fill:#FFFFFF;stroke:#000000;stroke-width:20;stroke-miterlimit:10;}
	.st1{fill:#FFCC80;}
	.st2{fill:#FFFFFF;}
	.st3{fill:#FF0066;}
	.st4{display:none;fill:#455A64;}
	.st5{display:none;fill:#FFFFFF;}
</style>

<g id="surface1">
	<circle class="st0" cx="16" cy="15.9" r="16"/>
	<path d="M15.8,26.5c-2.2,0-4-1-4-5.1s1.8-6.8,4-6.8s4,2.7,4,6.8S18.1,26.5,15.8,26.5z"/>
	<path class="st1" d="M15.8,22.5c-1.6,0-2.8-0.3-2.8-2.6s1.8-3.7,2.8-3.7s2.8,1.4,2.8,3.7S17.4,22.5,15.8,22.5z"/>
	<path d="M21.5,27.2c0-0.5-0.7-2.4-2.8-2.4c-1.7,0-2.3,1.7-2.3,2.6c0,0.7,1.3,0.9,2.8,0.9C21,28.2,21.5,27.7,21.5,27.2z"/>
	<path d="M10.2,27.2c0-0.5,0.7-2.4,2.8-2.4c1.7,0,2.3,1.7,2.3,2.6c0,0.7-1.3,0.9-2.8,0.9C10.7,28.2,10.2,27.7,10.2,27.2z"/>
	<path d="M11.9,11.7c0,2.5-2,4.5-4.5,4.5s-4.5-2-4.5-4.5s2-4.5,4.5-4.5S11.9,9.2,11.9,11.7z"/>
	<path d="M28.9,11.7c0,2.5-2,4.5-4.5,4.5s-4.5-2-4.5-4.5s2-4.5,4.5-4.5S28.9,9.2,28.9,11.7z"/>
	<path class="st1" d="M27.8,11.7c0,1.9-1.5,3.4-3.4,3.4c-1.9,0-3.4-1.5-3.4-3.4s1.5-3.4,3.4-3.4C26.2,8.3,27.8,9.8,27.8,11.7z"/>
	<path class="st1" d="M10.7,11.7c0,1.9-1.5,3.4-3.4,3.4s-3.4-1.5-3.4-3.4s1.5-3.4,3.4-3.4S10.7,9.8,10.7,11.7z"/>
	<path d="M22.7,11.7c0,3.1-1.9,5.7-6.8,5.7S9,14.8,9,11.7S10.9,6,15.8,6S22.7,8.6,22.7,11.7z"/>
	<path class="st1" d="M10.2,11.7c0,2.5,1.1,4.5,5.7,4.5s5.7-2,5.7-4.5s-1.1-4.5-5.7-4.5S10.2,9.2,10.2,11.7z"/>
	<path class="st2" d="M19.8,12c0,0.8-0.6,1.4-1.4,1.4S17,12.8,17,12s0.6-1.4,1.4-1.4S19.8,11.2,19.8,12z"/>
	<path class="st2" d="M14.7,12c0,0.8-0.6,1.4-1.4,1.4c-0.8,0-1.4-0.6-1.4-1.4s0.6-1.4,1.4-1.4C14.1,10.6,14.7,11.2,14.7,12z"/>
	<path class="st3" d="M19.5,12.3c0,0.6-0.5,1.1-1.1,1.1s-1.1-0.5-1.1-1.1s0.5-1.1,1.1-1.1S19.5,11.7,19.5,12.3z"/>
	<path class="st2" d="M19.3,11.4c0,0.2-0.1,0.3-0.3,0.3c-0.2,0-0.3-0.1-0.3-0.3c0-0.2,0.1-0.3,0.3-0.3
		C19.1,11.1,19.3,11.3,19.3,11.4z"/>
	<path class="st3" d="M14.4,12.3c0,0.6-0.5,1.1-1.1,1.1s-1.1-0.5-1.1-1.1s0.5-1.1,1.1-1.1S14.4,11.7,14.4,12.3z"/>
	<path class="st4" d="M15,14l0.9-0.9l0.9,0.9H15z"/>
	<path class="st5" d="M16.7,13.5l-0.9,0.9L15,13.5H16.7z"/>
	<path class="st3" d="M17,14.6c0,0-0.6,0.9-1.1,0.9c-0.6,0-1.1-0.9-1.1-0.9s0.6,0.3,1.1,0.3C16.4,14.9,17,14.6,17,14.6z"/>
	<path d="M18.9,9.4c-0.1,0-0.2,0-0.2-0.1c0,0-0.3-0.2-0.9-0.1c-0.2,0.1-0.5-0.1-0.5-0.3c0-0.2,0.1-0.5,0.3-0.5
		c0.9-0.2,1.4,0.2,1.5,0.2c0.2,0.1,0.2,0.4,0.1,0.6C19.1,9.4,19,9.4,18.9,9.4z"/>
	<path d="M12.8,9.4c-0.1,0-0.2-0.1-0.3-0.2c-0.1-0.2-0.1-0.4,0.1-0.6c0.1-0.1,0.6-0.4,1.5-0.2c0.2,0.1,0.3,0.3,0.3,0.5
		c-0.1,0.2-0.3,0.3-0.5,0.3c-0.5-0.1-0.9,0.1-0.9,0.1C13,9.4,12.9,9.4,12.8,9.4z"/>
	<path class="st2" d="M14.1,11.4c0,0.2-0.1,0.3-0.3,0.3c-0.2,0-0.3-0.1-0.3-0.3c0-0.2,0.1-0.3,0.3-0.3C14,11.1,14.1,11.3,14.1,11.4z
		"/>
	<path d="M22.7,21.4c0,0.6-0.5,1.1-1.1,1.1s-1.1-0.5-1.1-1.1c0-2.3-2.3-4-1.7-4C19.7,17.4,22.7,19,22.7,21.4z"/>
	<path d="M9,21.4c0,0.6,0.5,1.1,1.1,1.1s1.1-0.5,1.1-1.1c0-2.3,2.3-4,1.7-4C12,17.4,9,19,9,21.4z"/>
</g>
<g id="Layer_2_00000074405837788437008430000000887302868142999175_">
	<polygon class="st2" points="15.9,15.2 16.2,15.3 16.2,14.9 15.9,14.9 	"/>
	<polygon class="st2" points="15.8,15.2 15.5,15.3 15.5,14.9 15.8,14.9 	"/>
</g>
<path class="st2" d="M16,14.9"/>
</svg>
